<?xml version="1.0" encoding="UTF-8"?>
<svg id="Camada_1" xmlns="http://www.w3.org/2000/svg" viewBox="0 0 951.158804564199272 500">
  <defs>
    <style>
      .cls-1 {
        fill: #f6f6f6;
      }
    </style>
  </defs>
  <path class="cls-1" d="M475.585762335539584,166.666571855699658h-166.667425154335433L5.09851744338539,470.486676026390342c-10.891503648710568,10.890934782969452-3.177684079269966,29.513323973609658,12.224924966603794,29.513323973609658h291.594894771214967l166.667425154335433-166.666856288599774h-166.667425154335433l166.667425154335433-166.666571855700568Z"/>
  <path class="cls-1" d="M933.827603094084225,0h-291.575553335715085l-166.666287422829555,166.666571855699658h166.666287422829555l-166.666287422829555,166.666571855700568h166.666287422829555L946.058216718193762,29.527545617340365c10.896054574706795-10.896623440459734,3.178821810765839-29.527545617340365-12.230613624109537-29.527545617340365Z"/>
  <path class="cls-1" d="M610.975810825653753,437.447522134560131c-17.273039631739266,0-31.276238932713568,14.002630435219544-31.276238932713568,31.276238932719934,0,17.273324064610279,14.003199300974302,31.276238932719934,31.276238932713568,31.276238932719934,17.273039631741085,0,31.276238932715387-14.002914868109656,31.276238932715387-31.276238932719934,0-17.273608497500391-14.003199300974302-31.276238932719934-31.276238932715387-31.276238932719934ZM610.975810825653753,493.2981925997301c-13.571999062510258,0-24.575000398203883-11.002432469940686-24.575000398203883-24.574431532450035,0-13.571999062500254,11.003001335693625-24.574715965340147,24.575000398203883-24.574715965340147,13.571999062512077,0,24.575000398205702,11.002716902839893,24.575000398205702,24.574715965340147,0,13.571999062509349-11.003001335693625,24.574431532450035-24.575000398205702,24.574431532450035Z"/>
  <path class="cls-1" d="M610.978086288655504,479.888889141710024c-3.115108846775911,0-5.94692255006521-1.281654534650443-7.958431841921993-3.338673086500421-1.997856513853549-2.012362590479825-3.219780144763718-4.769654880519738-3.219780144763718-7.825317256429116,0-3.100318337270437,1.267432890910641-5.90198215583041,3.308523201760181-7.929419688680355,2.027437532849945-2.012078157589713,4.800089198144633-3.249076730870001,7.869688784925529-3.249076730870001,3.070737318274041,0,5.82859847407326,1.236998573280289,7.854898275423693,3.234286221369985l4.755717669656406-4.724998919149584c-3.234570654266463-3.219211278999865-7.691064939442185-5.201708417620466-12.610615945080099-5.201708417620466-4.91841327414113,0-9.374907559315034,1.982497138620602-12.608340482081985,5.201708417620466-3.249361163763751,3.234570654269191-5.262008187113679,7.720645958439491-5.262008187113679,12.669209117329956,0,4.903907197509398,1.967137763354913,9.34561097318965,5.157336889118596,12.565106685089631,3.24936116376557,3.279226615619336,7.750226977435887,5.306095282739989,12.713011780077068,5.306095282739989,4.963922534134326,0,9.465926079308701-2.026868667120652,12.714149511568394-5.306095282739989l-4.754579938149618-4.724998919160498c-2.027437532852673,2.056734118979875-4.84332299514972,3.323882577000404-7.959569573418776,3.323882577000404Z"/>
</svg>