<?xml version="1.0" encoding="UTF-8"?>
<svg id="Camada_1" xmlns="http://www.w3.org/2000/svg" viewBox="0 0 951.158804564195634 500">
  <defs>
    <style>
      .cls-1 {
        fill: #000310;
      }
    </style>
  </defs>
  <path class="cls-1" d="M475.585762335539584,166.666571855699658h-166.667425154339981L5.098517443379933,470.486676026390342c-10.891503648709659,10.890934782969452-3.177684079269966,29.513323973609658,12.224924966600156,29.513323973609658h291.594894771219515l166.667425154339981-166.666856288599774h-166.667425154339981l166.667425154339981-166.666571855700568Z"/>
  <path class="cls-1" d="M933.827603094081496,0h-291.575553335721452l-166.66628742282046,166.666571855699658h166.66628742282046l-166.66628742282046,166.666571855700568h166.66628742282046L946.058216718191034,29.527545617340365c10.896054574706795-10.896623440459734,3.17882181076493-29.527545617340365-12.230613624109537-29.527545617340365Z"/>
  <path class="cls-1" d="M610.975810825650115,437.447522134560131c-17.273039631740176,0-31.276238932710839,14.002630435219544-31.276238932710839,31.276238932719934,0,17.273324064610279,14.003199300970664,31.276238932719934,31.276238932710839,31.276238932719934s31.27623893270993-14.002914868109656,31.27623893270993-31.276238932719934c0-17.273608497500391-14.003199300969754-31.276238932719934-31.27623893270993-31.276238932719934ZM610.975810825650115,493.2981925997301c-13.571999062510258,0-24.575000398200245-11.002432469940686-24.575000398200245-24.574431532450035,0-13.571999062500254,11.003001335689987-24.574715965340147,24.575000398200245-24.574715965340147,13.571999062509349,0,24.57500039821025,11.002716902839893,24.57500039821025,24.574715965340147,0,13.571999062509349-11.003001335700901,24.574431532450035-24.57500039821025,24.574431532450035Z"/>
  <path class="cls-1" d="M610.978086288650047,479.888889141710024c-3.115108846770454,0-5.946922550060663-1.281654534650443-7.958431841920174-3.338673086500421-1.997856513849911-2.012362590479825-3.21978014476008-4.769654880519738-3.21978014476008-7.825317256429116,0-3.100318337270437,1.267432890909731-5.90198215583041,3.308523201760181-7.929419688680355,2.027437532849945-2.012078157589713,4.800089198140086-3.249076730870001,7.869688784920072-3.249076730870001,3.070737318279498,0,5.828598474079627,1.236998573280289,7.854898275420055,3.234286221369985l4.755717669660044-4.724998919149584c-3.234570654270101-3.219211278999865-7.691064939440366-5.201708417620466-12.610615945080099-5.201708417620466-4.918413274140221,0-9.374907559310486,1.982497138620602-12.608340482080166,5.201708417620466-3.249361163760113,3.234570654269191-5.262008187110041,7.720645958439491-5.262008187110041,12.669209117329956,0,4.903907197509398,1.967137763350365,9.34561097318965,5.157336889119506,12.565106685089631,3.249361163760113,3.279226615619336,7.75022697743043,5.306095282739989,12.713011780070701,5.306095282739989,4.963922534139783,0,9.465926079309611-2.026868667120652,12.714149511569303-5.306095282739989l-4.754579938149618-4.724998919160498c-2.027437532849945,2.056734118979875-4.84332299514972,3.323882577000404-7.959569573419685,3.323882577000404Z"/>
</svg>