<?xml version="1.0" encoding="UTF-8"?>
<svg id="Camada_1" xmlns="http://www.w3.org/2000/svg" viewBox="0 0 1785.78 500">
  <path d="M0,0h49.98v185.25L239.34,0h71.67l-161.71,152.74,165.06,225.73h-67.09L111.67,188.29l-61.69,58.27v131.91H0V0Z"/>
  <path d="M329.93,0h47.15v52.56h-47.15V0ZM329.93,103.83h47.15v274.65h-47.15V103.83Z"/>
  <path d="M423.79,102.54h44.06v39.16c13.05-16.14,26.88-27.74,41.48-34.78,14.6-7.04,30.83-10.56,48.7-10.56,39.16,0,65.61,13.65,79.35,40.97,7.56,14.94,11.34,36.33,11.34,64.15v177h-47.15v-173.91c0-16.83-2.49-30.4-7.47-40.71-8.25-17.17-23.19-25.76-44.83-25.76-11,0-20.01,1.12-27.05,3.35-12.71,3.78-23.88,11.34-33.49,22.67-7.73,9.11-12.75,18.51-15.07,28.21-2.32,9.7-3.48,23.57-3.48,41.61v144.54h-46.37V102.54Z"/>
  <path d="M851.59,113.62c8.72,6.01,17.62,14.78,26.69,26.28v-34.78h42.77v250.94c0,35.04-5.14,62.69-15.41,82.96-19.17,37.44-55.38,56.17-108.62,56.17-29.62,0-54.53-6.66-74.72-19.97-20.2-13.31-31.5-34.14-33.91-62.48h47.15c2.22,12.37,6.66,21.9,13.32,28.6,10.42,10.31,26.82,15.46,49.2,15.46,35.36,0,58.51-12.54,69.44-37.61,6.49-14.78,9.48-41.14,8.97-79.1-9.24,14.09-20.36,24.57-33.36,31.43-13,6.87-30.2,10.31-51.59,10.31-29.77,0-55.82-10.6-78.14-31.82-22.33-21.21-33.49-56.29-33.49-105.24,0-46.2,11.25-82.27,33.75-108.21,22.5-25.93,49.66-38.91,81.48-38.91,21.56,0,40.38,5.33,56.46,15.97ZM857.26,163.35c-14.01-16.49-31.87-24.73-53.57-24.73-32.47,0-54.68,15.29-66.65,45.86-6.33,16.32-9.48,37.71-9.48,64.15,0,31.09,6.28,54.75,18.84,70.98,12.56,16.23,29.44,24.35,50.63,24.35,33.15,0,56.47-15.03,69.97-45.09,7.52-17.01,11.28-36.85,11.28-59.52,0-34.18-7.01-59.51-21.02-76Z"/>
  <path d="M967.76,0h169.36c33.48,0,60.51,9.49,81.1,28.47,20.59,18.98,30.88,45.64,30.88,80,0,29.54-9.18,55.26-27.55,77.16-18.37,21.9-46.48,32.85-84.34,32.85h-118.18v160h-51.27V0ZM1166.62,52.04c-11.26-5.32-26.69-7.99-46.3-7.99h-101.29v131.14h101.29c22.85,0,41.39-4.89,55.64-14.68,14.24-9.79,21.36-27.05,21.36-51.79,0-27.83-10.23-46.72-30.69-56.68Z"/>
  <path d="M1424.8,205.55c10.65-1.37,17.78-5.83,21.38-13.37,2.06-4.14,3.09-10.08,3.09-17.85,0-15.86-5.62-27.37-16.84-34.53-11.23-7.15-27.3-10.73-48.21-10.73-24.17,0-41.31,6.56-51.43,19.68-5.65,7.25-9.34,18.04-11.06,32.36h-43.28c.86-34.1,11.88-57.83,33.07-71.18,21.19-13.35,45.76-20.02,73.72-20.02,32.43,0,58.76,6.18,79,18.55,20.07,12.37,30.11,31.61,30.11,57.72v158.97c0,4.81.99,8.67,2.97,11.59,1.97,2.91,6.14,4.37,12.5,4.37,2.06,0,4.38-.13,6.95-.39,2.58-.26,5.33-.64,8.25-1.16v34.26c-7.21,2.06-12.71,3.35-16.49,3.86-3.78.52-8.93.78-15.46.78-15.97,0-27.57-5.67-34.78-17-3.78-6.01-6.44-14.51-7.99-25.5-9.45,12.37-23.02,23.1-40.71,32.2-17.69,9.1-37.19,13.65-58.48,13.65-25.6,0-46.5-7.76-62.74-23.29-16.23-15.52-24.35-34.95-24.35-58.28,0-25.56,7.99-45.37,23.96-59.44,15.98-14.07,36.93-22.74,62.87-25.99l73.95-9.26ZM1327.15,330.83c9.79,7.71,21.38,11.56,34.78,11.56,16.32,0,32.12-3.77,47.4-11.32,25.77-12.52,38.65-33.01,38.65-61.48v-37.3c-5.66,3.62-12.94,6.63-21.85,9.04-8.92,2.42-17.66,4.14-26.23,5.16l-28.03,3.6c-16.8,2.23-29.43,5.75-37.9,10.54-14.34,8.05-21.51,20.91-21.51,38.56,0,13.36,4.9,23.9,14.69,31.62Z"/>
  <path d="M1734.51,110.96h51.27c-6.53,17.7-21.04,58.09-43.54,121.15-16.84,47.43-30.92,86.09-42.25,115.99-26.77,70.37-45.65,113.28-56.63,128.73-10.98,15.45-29.86,23.17-56.63,23.17-6.52,0-11.54-.26-15.06-.77-3.52-.52-7.86-1.46-13-2.83v-42.25c8.06,2.23,13.89,3.61,17.49,4.12,3.6.52,6.78.77,9.52.77,8.57,0,14.87-1.42,18.9-4.25,4.03-2.83,7.42-6.3,10.17-10.41.85-1.37,3.94-8.4,9.25-21.08,5.31-12.69,9.17-22.12,4.04-28.29l-102.03-284.05h60.09l73.94,224.77,74.46-224.77Z"/>
</svg>