<?xml version="1.0" encoding="UTF-8"?>
<svg id="Camada_1" xmlns="http://www.w3.org/2000/svg" viewBox="0 0 1801.867481332421448 999.999999999989996">
  <defs>
    <style>
      .cls-1 {
        fill: #f6f6f6;
      }
    </style>
  </defs>
  <g>
    <path class="cls-1" d="M0,495.495704890179695h50.430724381250911v186.921579282479797l191.060445189179518-186.921579282479797h72.317414176000966l-163.169915745831531,154.120207096640115,166.548269819260895,227.767561563980053h-67.693196496300516l-136.819518306549071-191.897390372530026-62.243498635760261,58.796354547260307v133.101035825269719H0v-381.887768660620168Z"/>
    <path class="cls-1" d="M332.897812928320491,495.495704890179695h47.575938755860989v53.033279951390796h-47.575938755860989v-53.033279951390796ZM332.897812928320491,600.262897841670565h47.575938755860989v277.120575709129298h-47.575938755860989v-277.120575709129298Z"/>
    <path class="cls-1" d="M427.606377009589778,598.959709222819583h44.453636405190991v39.516041990170379c13.169466218379966-16.287946901539726,27.122374275049879-27.986071130930213,41.854902502540426-35.094372688169642,14.728706559970306-7.104479889720096,31.10837348162022-10.658630668320257,49.1351790974295-10.658630668320257,39.512220322671055,0,66.198924502270529,13.777111351500025,80.067755873880742,41.335155722019408,7.62422667024839,15.07647830282076,11.438250839119064,36.653613029729968,11.438250839119064,64.731404180780373v178.594165791500018h-47.572117088358937v-175.475685108339349c0-16.983490387270649-2.514657217539934-30.676525053660953-7.540149985170501-41.075282331740709-8.319770155940205-17.327440462609957-23.396248458760965-25.994982361419716-45.233256575949781-25.994982361419716-11.094300763779756,0-20.193691090540597,1.127391913660176-27.298170980260693,3.378354073429364-12.82551614302065,3.814024168870674-24.091791944469151,11.438250839140892-33.795005736839812,22.876501678260865-7.800023375430101,9.187288679319863-12.867554485570508,18.676489091479198-15.206414997959655,28.4676012364298-2.338860512370957,9.791112144949693-3.512112436059397,23.786058544159459-3.512112436059397,41.984839197660222v145.838653615719522h-46.792496917561948v-278.42376432798028Z"/>
    <path class="cls-1" d="M859.256622354540013,610.138086671699966c8.80130026146071,6.068807996160103,17.778397228081303,14.908324932649521,26.931290899899977,26.518550809450062v-35.094372688170552h43.154269453840243v253.204580469840948c0,35.354246078419237-5.182181135269275,63.256240524279747-15.546543405789635,83.709805005079033-19.34528090467029,37.777183275900825-55.880422241800261,56.671507415090673-109.593959008909223,56.671507415090673-29.885439880361446,0-55.016725385890823-6.718491471820016-75.397678184121105-20.147831080470496-20.384774465699593-13.433161276149804-31.78480862978904-34.444689212499725-34.211567494759947-63.042227144079334h47.57593875584098c2.235675489790083,12.4777444001802,6.718491471840025,22.096881507460239,13.444626278678697,28.857411321830114,10.50958563569111,10.398757278079756,27.061227595000673,15.596225083339959,49.639639207951404,15.596225083339959,35.679087816270112,0,59.033297932488495-12.653541105350087,70.066452016209951-37.952979981050703,6.550338101669695-14.908324932649521,9.569455429709706-41.507130759699976,9.049708649199601-79.811704151129561-9.324868709471048,14.212781446960435-20.541462833389232,24.787335430190069-33.661247374200684,31.716018614739369-13.119784540849651,6.936326519550676-30.473976675979429,10.398757278080666-52.051111402930474,10.398757278080666-30.038306580509015,0-56.32373567221839-10.696847343369882-78.848643940118563-32.105828700139682-22.528729935400406-21.401338021750234-33.795005736850726-56.801444110230477-33.795005736850726-106.192674930440262,0-46.620521879870466,11.350352486530028-83.014261519369938,34.05487912711942-109.185040585950446,22.700704973060056-26.166957399110288,50.105882643420045-39.256168599899866,82.215533011039952-39.256168599899866,21.752931432121841,0,40.742797258910286,5.373264510460103,56.973419147900131,16.115971863880077ZM864.981480275380818,660.312759330189692c-14.140169764379607-16.63571864441019-32.159332045179326-24.95548880035949-54.057486842439175-24.95548880035949-32.763155510810975,0-55.177235421080695,15.428071713179634-67.246061398360325,46.272750137030016-6.382184731481175,16.467565274219851-9.569455429711525,38.044700001169986-9.569455429711525,64.731404180789468,0,31.372068539370048,6.336324721440178,55.242203768640138,19.008974164320534,71.621870690280048,12.672649442869442,16.37584525415059,29.701999840181088,24.565678714960086,51.084229524391048,24.565678714960086,33.447233994009366,0,56.981062482929701-15.164376655409797,70.605307134279428-45.49312996622939,7.586009995209679-17.159287092430532,11.380925826579187-37.177181477780323,11.380925826579187-60.05368315602027,0-34.486727555070502-7.073906549700041-60.049861488540046-21.206432979059173-76.689401800450469Z"/>
    <path class="cls-1" d="M976.474808033701265,495.495704890179695h170.889684103689433c33.779719066820689,0,61.058781709540199,9.577098764730181,81.833366260660114,28.727474626700314,20.77458455111082,19.150375861950124,31.158055159170544,46.054915089310271,31.158055159170544,80.717439349529741,0,29.809006530310398-9.267543696911162,55.761950549170251-27.802631090751674,77.85883205663049-18.538909061358936,22.096881507460239-46.903325275168754,33.145322261189904-85.100891976479033,33.145322261189904h-119.243669456209318v161.438700366569719h-51.733913000080065v-381.887768660620168ZM1177.131460325141234,548.009238061060387c-11.357995821550503-5.36944284296078-26.931290899879968-8.05989676569061-46.716063567469973-8.05989676569061h-102.20667572388993v132.321415654470002h102.20667572388993c23.056120050929167,0,41.767004149940476-4.937594415019703,56.136473964539618-14.816604912570256,14.365648147100728-9.879010497529634,21.550383054400299-27.29817098022977,21.550383054400299-52.25365978058926,0-28.077791151050405-10.32232392799051-47.140268660410584-30.970793451469945-57.191254195619877Z"/>
    <path class="cls-1" d="M1437.634113571481066,702.892647115910222c10.742707353419974-1.383443636400443,17.938907263240253-5.881546288480422,21.577134726929216-13.494307956209923,2.075165454620219-4.177082581750255,3.114659015669531-10.17327889535045,3.114659015669531-18.007697278310843,0-16.001321838749391-5.667532908249996-27.61536938305926-16.994955389778625-34.838320965399362-11.327422481510439-7.219129914849873-27.542757700490256-10.830605706009919-48.642183989441037-10.830605706009919-24.386060342279961,0-41.686749132359182,6.6229497842196-51.890601367718773,19.857384350179927-5.705749583290526,7.318493269929604-9.424232064600801,18.206423988509414-11.155447443839876,32.656148820679846h-43.67401623438127c.867518523380568-34.410294204940328,11.988570959680146-58.353041116780332,33.366978976400787-71.824419067989766,21.378408016729736-13.467556283690101,46.173386781929366-20.201334425540153,74.388757963099124-20.201334425540153,32.717295500760883,0,59.289349655260594,6.236961366349533,79.716162463530054,18.714705766529733,20.254837770580707,12.481566067690437,30.378434988360823,31.89181531992017,30.378434988360823,58.238391091690573v160.406850140539973c0,4.85351772992999.997455218519463,8.751618583889467,2.992365655540198,11.69430256187934,1.987267102009355,2.938862310490549,6.191101356300351,4.410204299470024,12.607681095329099,4.410204299470024,2.078987122100443,0,4.417847634491409-.129936695119795,7.016581537120146-.389810085389399,2.602555570139884-.259873390260509,5.373264510461013-.645861808150585,8.319770155960214-1.165608588679788v34.570804240119287c-7.27645492739066,2.078987122130457-12.825516143029745,3.378354073450282-16.63571864440928,3.898100853970391-3.814024168870674.523568448029437-9.015313641661123.783441838289946-15.600046750851106.783441838289946-16.115971863890081,0-27.814096093279659-5.721036253319653-35.094372688168733-17.155465424920294-3.814024168870674-6.06498632865987-6.50065642410118-14.644629874879683-8.059896765691519-25.731287303649879-9.531238754689184,12.4777444001802-23.224273421099497,23.304528438669877-41.0752823317398,32.491817118019753-17.851008910658493,9.179645344340315-37.521131553159648,13.773289684000702-59.01036792747982,13.773289684000702-25.826828991250295,0-46.922433612679015-7.834418382960394-63.302100534348938-23.499433481390952-16.375845254140586-15.661193430929416-24.565678714950991-35.266347725839296-24.565678714950991-58.807819549769192,0-25.788612316209765,8.0598967656897-45.783576696529963,24.175868629570687-59.97342813844989,16.119793531379401-14.193673109430165,37.261258162849117-22.941470025820308,63.432037229460548-26.228104079170407l74.61423634582934-9.347798714489727ZM1339.103881986360648,829.305764809389984c9.87901049751963,7.780915037899831,21.577134726911027,11.667550889359518,35.094372688150543,11.667550889359518,16.463743606740536,0,32.40774043294914-3.806380833879302,47.831990478620355-11.419142501609713,25.998804028909944-12.630611100329588,38.996295209639356-33.305832296349763,38.996295209639356-62.033306923040072v-37.631959910749174c-5.709571250810768,3.649692466209672-13.058637860789531,6.691739799299285-22.051021497431066,9.126141999269748-8.996205304149044,2.438223867469787-17.816613903098187,4.173260914260027-26.4650474643895,5.208932807800011l-28.280339528739205,3.63440579618964c-16.949095379719438,2.250962159790106-29.694356505171527,5.7974696033898-38.239605043871052,10.639522330809996-14.47265483720912,8.124865113270062-21.707071422059016,21.095604621449638-21.707071422059016,38.904575189540083,0,13.482842953700128,4.941416082529031,24.118543617009891,14.820426580079584,31.903280322429964Z"/>
    <path class="cls-1" d="M1750.133568332361392,607.453600671029562h51.733913000060056c-6.588554776710225,17.862473913170106-21.2331846515699,58.609092839560617-43.933889624660878,122.243678446760896-16.987312054769063,47.85492048362903-31.196271834189247,86.866502363279324-42.63452267331013,117.034745638939057-27.011545917470357,71.002760554670203-46.058736756829603,114.298431706160045-57.137750850579323,129.890835122010685-11.082835761260867,15.584760080830165-30.130026600620113,23.377140121249795-57.141572518070461,23.377140121249795-6.58091144168975,0-11.644620884329925-.259873390249595-15.194949995449861-.779620170789713-3.550329111099927-.519746780520109-7.926138403059667-1.471341988980384-13.115962873329408-2.85860729290016v-42.634522673320134c8.132508448259614,2.250962159780102,14.014054736739126,3.64204913120011,17.644638865429442,4.161795911710215,3.630584128690316.519746780550122,6.836963164450935.779620170799717,9.60767210477934.779620170799717,8.64843356126039,0,15.003866620239933-1.429303646449625,19.07012084436974-4.284089271850462s7.486646640110848-6.355433058949529,10.257355580430158-10.505763968169049c.859875188371007-1.387265303920685,3.974534204029624-8.476458523629844,9.336333711980842-21.271401326630439,5.361799507949399-12.806407805510389,9.256078694410462-22.318538222670213,4.07771922665961-28.540212918999714l-102.944257552140698-286.613597788810694h60.634576616610502l74.610414678340021,226.793036350500188,75.130161458881048-226.793036350500188Z"/>
  </g>
  <g>
    <path class="cls-1" d="M900.938598319131415,127.295842150009776h-127.296493878589899l-232.05013089772001,232.05034814057035c-8.318663507650854,8.318229021950174-2.4270372064002,22.541553402319551,9.337098024629086,22.541553402319551h222.713032873090924l127.296493878589899-127.296059392889219h-127.296493878589899l127.296493878589899-127.295842150000681Z"/>
    <path class="cls-1" d="M1250.932483585051159,0h-222.698260358769403l-127.295624907150341,127.295842150009776h127.295624907150341l-127.295624907150341,127.295842150000681h127.295624907150341l232.039703240548988-232.039268754821023c8.322139393379985-8.322573879099764,2.427906177839759-22.552415545189433-9.341442881779585-22.552415545189433Z"/>
    <path class="cls-1" d="M1004.346198591860229,334.111694424040252c-13.19272426337011,0-23.888024634439716,10.694865885329818-23.888024634439716,23.888024634419708,0,13.192941506229545,10.695300371069607,23.888024634439716,23.888024634439716,23.888024634439716,13.192724263361015,0,23.888024634421527-10.695083128210172,23.888024634421527-23.888024634439716,0-13.193158749089889-10.695300371060512-23.888024634419708-23.888024634421527-23.888024634419708ZM1004.346198591860229,376.769067479390287c-10.365960198769244,0-18.769782906649198-8.403388222160174-18.769782906649198-18.769348420930328,0-10.365960198760149,8.403822707879954-18.769565663789763,18.769782906649198-18.769565663789763,10.365960198760149,0,18.769782906640103,8.403605465029614,18.769782906640103,18.769565663789763,0,10.365960198770154-8.403822707879954,18.769348420930328-18.769782906640103,18.769348420930328Z"/>
    <path class="cls-1" d="M1004.347936534721157,366.527370195230105c-2.379243777710144,0-4.54211366913114-.9788963168603-6.078455158889483-2.549996663859929-1.525913832600054-1.536993218340285-2.459189149351005-3.642945481030438-2.459189149351005-5.976785501470658,0-2.367947149109568.968034173989508-4.507789297619638,2.526968920959916-6.05629638740902,1.548507089790292-1.53677597548085,3.666190466810804-2.481565163679988,6.010675387280571-2.481565163679988,2.345353891900231,0,4.451740640310163.944789188199138,5.999378758679086,2.470268535069408l3.632300581000891-3.608838352370185c-2.470485777939757-2.458754663619402-5.874246872630465-3.972937381910015-9.631679339679977-3.972937381910015-3.756563495629962,0-7.16032459032067,1.514182718290613-9.629941396829963,3.972937381910015-2.481782406550337,2.470485777940667-4.018992867740963,5.896840129839802-4.018992867740963,9.676431368389785,0,3.745484109870631,1.502451603961163,7.137948575960763,3.939047496100102,9.596920482450514,2.481782406550337,2.50459290660001,5.919433387040044,4.052665510689621,9.709886768470824,4.052665510689621,3.791322352850329,0,7.229842304779595-1.548072604089612,9.710755739890374-4.052665510689621l-3.631431609581341-3.608838352380189c-1.548507089788473,1.570883104150198-3.699211381179339,2.538700035260263-6.079324130309033,2.538700035260263Z"/>
  </g>
</svg>