<?xml version="1.0" encoding="UTF-8"?>
<svg id="Camada_1" xmlns="http://www.w3.org/2000/svg" viewBox="0 0 1801.867481332419629 999.999999999989996">
  <defs>
    <style>
      .cls-1 {
        fill: #1313f2;
      }
    </style>
  </defs>
  <g>
    <path d="M0,495.495704890179695h50.430724381250002v186.921579282479797l191.060445189180427-186.921579282479797h72.317414175999147l-163.169915745829712,154.120207096640115,166.548269819259986,227.767561563980053h-67.693196496299606l-136.81951830655089-191.897390372530026-62.243498635759352,58.796354547260307v133.101035825269719H0v-381.887768660620168Z"/>
    <path d="M332.897812928320491,495.495704890179695h47.57593875585917v53.033279951390796h-47.57593875585917v-53.033279951390796ZM332.897812928320491,600.262897841670565h47.57593875585917v277.120575709129298h-47.57593875585917v-277.120575709129298Z"/>
    <path d="M427.606377009589778,598.959709222819583h44.453636405190082v39.516041990170379c13.169466218379966-16.287946901539726,27.122374275050788-27.986071130930213,41.854902502539517-35.094372688169642,14.728706559970306-7.104479889720096,31.10837348162022-10.658630668320257,49.135179097430409-10.658630668320257,39.512220322670146,0,66.19892450226962,13.777111351500025,80.067755873879833,41.335155722019408,7.624226670250209,15.07647830282076,11.438250839120883,36.653613029729968,11.438250839120883,64.731404180780373v178.594165791500018h-47.572117088360756v-175.475685108339349c0-16.983490387270649-2.514657217539934-30.676525053660953-7.540149985169592-41.075282331740709-8.319770155940205-17.327440462609957-23.396248458760056-25.994982361419716-45.233256575950691-25.994982361419716-11.094300763779756,0-20.193691090539687,1.127391913660176-27.298170980258874,3.378354073429364-12.82551614302065,3.814024168870674-24.09179194447097,11.438250839140892-33.795005736840722,22.876501678260865-7.800023375429191,9.187288679319863-12.867554485569599,18.676489091479198-15.206414997959655,28.4676012364298-2.338860512370047,9.791112144949693-3.512112436060306,23.786058544159459-3.512112436060306,41.984839197660222v145.838653615719522h-46.792496917560129v-278.42376432798028Z"/>
    <path d="M859.256622354540013,610.138086671699966c8.801300261459801,6.068807996160103,17.778397228079484,14.908324932649521,26.931290899899977,26.518550809450062v-35.094372688170552h43.154269453840243v253.204580469840948c0,35.354246078419237-5.182181135270184,63.256240524279747-15.546543405790544,83.709805005079033-19.34528090466938,37.777183275900825-55.880422241799351,56.671507415090673-109.593959008910133,56.671507415090673-29.885439880359627,0-55.016725385889004-6.718491471820016-75.397678184119286-20.147831080470496-20.384774465700502-13.433161276149804-31.78480862978995-34.444689212499725-34.211567494759947-63.042227144079334h47.575938755839161c2.235675489790083,12.4777444001802,6.718491471840025,22.096881507460239,13.444626278680516,28.857411321830114,10.5095856356902,10.398757278079756,27.061227594999764,15.596225083339959,49.639639207949585,15.596225083339959,35.679087816270112,0,59.033297932490314-12.653541105350087,70.066452016209951-37.952979981050703,6.550338101670604-14.908324932649521,9.569455429710615-41.507130759699976,9.049708649200511-79.811704151129561-9.324868709470138,14.212781446960435-20.541462833390142,24.787335430190069-33.661247374199775,31.716018614739369-13.11978454085056,6.936326519550676-30.473976675980339,10.398757278080666-52.051111402930474,10.398757278080666-30.038306580509925,0-56.323735672220209-10.696847343369882-78.848643940119473-32.105828700139682-22.528729935400406-21.401338021750234-33.795005736849816-56.801444110230477-33.795005736849816-106.192674930440262,0-46.620521879870466,11.350352486530028-83.014261519369938,34.05487912711942-109.185040585950446,22.700704973060056-26.166957399110288,50.105882643420045-39.256168599899866,82.215533011039952-39.256168599899866,21.752931432120022,0,40.742797258910286,5.373264510460103,56.973419147900131,16.115971863880077ZM864.981480275379909,660.312759330189692c-14.140169764379607-16.63571864441019-32.159332045180236-24.95548880035949-54.057486842440085-24.95548880035949-32.763155510810066,0-55.177235421079786,15.428071713179634-67.246061398360325,46.272750137030016-6.382184731479356,16.467565274219851-9.569455429709706,38.044700001169986-9.569455429709706,64.731404180789468,0,31.372068539370048,6.336324721440178,55.242203768640138,19.008974164320534,71.621870690280048,12.672649442869442,16.37584525415059,29.701999840179269,24.565678714960086,51.084229524389229,24.565678714960086,33.447233994010276,0,56.981062482930611-15.164376655409797,70.605307134280338-45.49312996622939,7.586009995210588-17.159287092430532,11.380925826580096-37.177181477780323,11.380925826580096-60.05368315602027,0-34.486727555070502-7.073906549700041-60.049861488540046-21.206432979060082-76.689401800450469Z"/>
    <path d="M976.474808033699446,495.495704890179695h170.889684103690342c33.77971906681978,0,61.058781709540199,9.577098764730181,81.833366260660114,28.727474626700314,20.774584551109911,19.150375861950124,31.158055159169635,46.054915089310271,31.158055159169635,80.717439349529741,0,29.809006530310398-9.267543696909343,55.761950549170251-27.802631090749856,77.85883205663049-18.538909061359846,22.096881507460239-46.903325275169664,33.145322261189904-85.100891976479943,33.145322261189904h-119.243669456210228v161.438700366569719h-51.733913000080065v-381.887768660620168ZM1177.131460325140324,548.009238061060387c-11.357995821550503-5.36944284296078-26.931290899880878-8.05989676569061-46.716063567470883-8.05989676569061h-102.20667572388993v132.321415654470002h102.20667572388993c23.056120050930986,0,41.767004149940476-4.937594415019703,56.136473964540528-14.816604912570256,14.365648147099819-9.879010497529634,21.550383054400299-27.29817098022977,21.550383054400299-52.25365978058926,0-28.077791151050405-10.32232392799051-47.140268660410584-30.970793451469945-57.191254195619877Z"/>
    <path d="M1437.634113571480157,702.892647115910222c10.742707353419974-1.383443636400443,17.938907263239344-5.881546288480422,21.577134726930126-13.494307956209923,2.075165454620219-4.177082581750255,3.114659015669531-10.17327889535045,3.114659015669531-18.007697278310843,0-16.001321838749391-5.667532908249996-27.61536938305926-16.994955389779534-34.838320965399362-11.327422481510439-7.219129914849873-27.542757700490256-10.830605706009919-48.642183989440127-10.830605706009919-24.386060342279961,0-41.686749132360092,6.6229497842196-51.890601367720592,19.857384350179927-5.705749583289617,7.318493269929604-9.424232064599892,18.206423988509414-11.155447443839876,32.656148820679846h-43.674016234379451c.867518523379658-34.410294204940328,11.988570959680146-58.353041116780332,33.366978976399878-71.824419067989766,21.378408016729736-13.467556283690101,46.173386781930276-20.201334425540153,74.388757963100034-20.201334425540153,32.717295500759974,0,59.289349655259684,6.236961366349533,79.716162463530054,18.714705766529733,20.254837770579798,12.481566067690437,30.378434988359913,31.89181531992017,30.378434988359913,58.238391091690573v160.406850140539973c0,4.85351772992999.997455218520372,8.751618583889467,2.992365655540198,11.69430256187934,1.987267102009355,2.938862310490549,6.191101356299441,4.410204299470024,12.607681095330008,4.410204299470024,2.078987122099534,0,4.41784763448959-.129936695119795,7.016581537120146-.389810085389399,2.602555570139884-.259873390260509,5.373264510459194-.645861808150585,8.319770155959304-1.165608588679788v34.570804240119287c-7.27645492738975,2.078987122130457-12.825516143029745,3.378354073450282-16.63571864441019,3.898100853970391-3.814024168869764.523568448029437-9.015313641659304.783441838289946-15.600046750849287.783441838289946-16.115971863890081,0-27.814096093280568-5.721036253319653-35.094372688170552-17.155465424920294-3.814024168869764-6.06498632865987-6.500656424099361-14.644629874879683-8.0598967656897-25.731287303649879-9.531238754690094,12.4777444001802-23.224273421099497,23.304528438669877-41.0752823317398,32.491817118019753-17.851008910660312,9.179645344340315-37.521131553160558,13.773289684000702-59.01036792747982,13.773289684000702-25.826828991250295,0-46.922433612680834-7.834418382960394-63.302100534350757-23.499433481390952-16.375845254139676-15.661193430929416-24.565678714949172-35.266347725839296-24.565678714949172-58.807819549769192,0-25.788612316209765,8.0598967656897-45.783576696529963,24.175868629569777-59.97342813844989,16.119793531379401-14.193673109430165,37.261258162850027-22.941470025820308,63.432037229459638-26.228104079170407l74.61423634583025-9.347798714489727ZM1339.103881986359738,829.305764809389984c9.87901049752054,7.780915037899831,21.577134726910117,11.667550889359518,35.094372688150543,11.667550889359518,16.463743606739627,0,32.40774043295005-3.806380833879302,47.831990478619446-11.419142501609713,25.998804028909944-12.630611100329588,38.996295209640266-33.305832296349763,38.996295209640266-62.033306923040072v-37.631959910749174c-5.709571250809859,3.649692466209672-13.058637860790441,6.691739799299285-22.051021497430156,9.126141999269748-8.996205304149953,2.438223867469787-17.816613903100006,4.173260914260027-26.4650474643895,5.208932807800011l-28.280339528740114,3.63440579618964c-16.949095379720347,2.250962159790106-29.694356505170617,5.7974696033898-38.239605043870142,10.639522330809996-14.47265483721003,8.124865113270062-21.707071422059926,21.095604621449638-21.707071422059926,38.904575189540083,0,13.482842953700128,4.94141608252994,24.118543617009891,14.820426580079584,31.903280322429964Z"/>
    <path d="M1750.133568332359573,607.453600671029562h51.733913000060056c-6.588554776710225,17.862473913170106-21.2331846515699,58.609092839560617-43.933889624659059,122.243678446760896-16.987312054770882,47.85492048362903-31.196271834191066,86.866502363279324-42.63452267331013,117.034745638939057-27.011545917470357,71.002760554670203-46.058736756830513,114.298431706160045-57.137750850580233,129.890835122010685-11.082835761259958,15.584760080830165-30.130026600620113,23.377140121249795-57.141572518070461,23.377140121249795-6.58091144168975,0-11.644620884329925-.259873390249595-15.194949995449861-.779620170789713-3.550329111099927-.519746780520109-7.926138403059667-1.471341988980384-13.115962873330318-2.85860729290016v-42.634522673320134c8.132508448260523,2.250962159780102,14.014054736740945,3.64204913120011,17.644638865430352,4.161795911710215,3.630584128690316.519746780550122,6.836963164450026.779620170799717,9.607672104780249.779620170799717,8.64843356126039,0,15.003866620239933-1.429303646449625,19.07012084436974-4.284089271850462s7.486646640109939-6.355433058949529,10.257355580430158-10.505763968169049c.859875188370097-1.387265303920685,3.974534204029624-8.476458523629844,9.336333711979933-21.271401326630439,5.361799507950309-12.806407805510389,9.256078694409553-22.318538222670213,4.07771922666052-28.540212918999714l-102.944257552140698-286.613597788810694h60.634576616610502l74.610414678340021,226.793036350500188,75.130161458879229-226.793036350500188Z"/>
  </g>
  <g>
    <path class="cls-1" d="M900.938598319129596,127.295842150009776h-127.296493878589899l-232.05013089772001,232.05034814057035c-8.318663507649035,8.318229021950174-2.4270372064002,22.541553402319551,9.337098024630905,22.541553402319551h222.713032873089105l127.296493878589899-127.296059392889219h-127.296493878589899l127.296493878589899-127.295842150000681Z"/>
    <path class="cls-1" d="M1250.93248358505025,0h-222.698260358770312l-127.295624907150341,127.295842150009776h127.295624907150341l-127.295624907150341,127.295842150000681h127.295624907150341l232.039703240549898-232.039268754821023c8.322139393379985-8.322573879099764,2.427906177840669-22.552415545189433-9.341442881779585-22.552415545189433Z"/>
    <path class="cls-1" d="M1004.346198591860229,334.111694424040252c-13.19272426337011,0-23.888024634439716,10.694865885329818-23.888024634439716,23.888024634419708,0,13.192941506229545,10.695300371069607,23.888024634439716,23.888024634439716,23.888024634439716,13.192724263360105,0,23.888024634419708-10.695083128210172,23.888024634419708-23.888024634439716,0-13.193158749089889-10.695300371059602-23.888024634419708-23.888024634419708-23.888024634419708ZM1004.346198591860229,376.769067479390287c-10.365960198770154,0-18.769782906650107-8.403388222160174-18.769782906650107-18.769348420930328,0-10.365960198760149,8.403822707879954-18.769565663789763,18.769782906650107-18.769565663789763,10.365960198760149,0,18.769782906640103,8.403605465029614,18.769782906640103,18.769565663789763,0,10.365960198770154-8.403822707879954,18.769348420930328-18.769782906640103,18.769348420930328Z"/>
    <path class="cls-1" d="M1004.347936534720247,366.527370195230105c-2.379243777710144,0-4.542113669130231-.9788963168603-6.078455158890392-2.549996663859929-1.525913832600054-1.536993218340285-2.459189149350095-3.642945481030438-2.459189149350095-5.976785501470658,0-2.367947149109568.968034173990418-4.507789297619638,2.526968920959916-6.05629638740902,1.548507089790292-1.53677597548085,3.666190466809894-2.481565163679988,6.010675387280571-2.481565163679988,2.345353891899322,0,4.451740640309254.944789188199138,5.999378758679995,2.470268535069408l3.632300580999981-3.608838352370185c-2.470485777940667-2.458754663619402-5.874246872630465-3.972937381910015-9.631679339679977-3.972937381910015-3.756563495629962,0-7.16032459031976,1.514182718290613-9.629941396829963,3.972937381910015-2.481782406550337,2.470485777940667-4.018992867740053,5.896840129839802-4.018992867740053,9.676431368389785,0,3.745484109870631,1.502451603959344,7.137948575960763,3.939047496100102,9.596920482450514,2.481782406549428,2.50459290660001,5.919433387040044,4.052665510689621,9.709886768469914,4.052665510689621,3.79132235284942,0,7.229842304779595-1.548072604089612,9.710755739889464-4.052665510689621l-3.631431609579522-3.608838352380189c-1.548507089790292,1.570883104150198-3.699211381180248,2.538700035260263-6.079324130309942,2.538700035260263Z"/>
  </g>
</svg>