<?xml version="1.0" encoding="UTF-8"?>
<svg id="Camada_1" xmlns="http://www.w3.org/2000/svg" viewBox="0 0 2618.341652105384128 500">
  <defs>
    <style>
      .cls-1 {
        fill: #1313f2;
      }
    </style>
  </defs>
  <g>
    <path d="M832.561532096489827,0h49.980470800820513v185.252713499489801L1071.896629846110045,0h71.67175272537952l-161.713108617149373,152.744197215510212,165.06130020458022,225.734016312379936h-67.088820801370275l-135.597971744490678-190.184099751580106-61.687778715749118,58.271411281530163v131.912688470049943h-49.980470800820513V0Z"/>
    <path d="M1162.487180059360071,0h47.15117315849966v52.559790338220409h-47.15117315849966V0ZM1162.487180059360071,103.831814681269861h47.15117315849966v274.646398846620286h-47.15117315849966V103.831814681269861Z"/>
    <path d="M1256.350170919189623,102.540261139050017h44.05674722303047v39.163236441369918c13.05188711576011-16.142525504170408,26.880221375679866-27.736207007739722,41.481215232710383-34.781044510739775,14.597206309959802-7.041049955970266,30.830632943219825-10.563468707469838,48.696492352689347-10.563468707469838,39.159448894350135,0,65.607889906929813,13.654107095870131,79.352898131850452,40.966108834649276,7.556156354039558,14.941873091031084,11.336128304569684,36.326363704940377,11.336128304569684,64.153471841789724v176.999648489240826h-47.147385611459868v-173.909010100839623c0-16.831859066291145-2.492205955350073-30.402640127160339-7.472830319050445-40.708555635590528-8.245489916119368-17.172738300299898-23.187363007149543-25.762894997520561-44.829406820119402-25.762894997520561-10.995249070540012,0-20.013398583780145,1.117326378180223-27.054448539730402,3.348191587450856-12.711007881759542,3.77997195054013-23.876696569309388,11.336128304559679-33.493278515599741,22.672256609110264-7.730383518070084,9.105263095259943-12.752670899229997,18.509742407070007-15.070649690550454,28.21343793539927-2.317978791299538,9.703695528320168-3.480755733990009,23.573692805700375-3.480755733990009,41.609991832210653v144.53658276977967h-46.374726014350017V102.540261139050017Z"/>
    <path d="M1684.146573773389719,113.618836244560043c8.722720843780735,6.014624706859649,17.619668851590177,14.775221021070138,26.690844023460158,26.281788942630556v-34.781044510760694h42.768981227870427v250.943929441400542c0,35.038597709799433-5.135913792517385,62.691478682580055-15.407741377516686,82.96243046537893-19.172563139884005,37.439902536100817-55.381512886463497,56.165535124689995-108.615486598633652,56.165535124689995-29.618617888930203,0-54.525527254349981-6.658507704429212-74.724515643330051-19.967948019218966-20.202775935989848-13.313227861850464-31.501028770099765-34.137161513180217-33.906121143440032-62.479376048080667h47.151173158479651c2.215715021120559,12.366341100680074,6.65850770445013,21.899597011990409,13.324590502990759,28.599767733920089,10.415754372719675,10.305915508420185,26.819620622959519,15.456979489090372,49.196448562589467,15.456979489090372,35.360539208590126,0,58.506239198270123-12.540568264730609,69.440887516090697-37.614129700110425,6.49185563447918-14.775221021069228,9.484017799719368-41.136548451630006,8.968911401669175-79.099132479899708-9.241614788899824,14.085887458970319-20.358065364859613,24.566030131420121-33.360714369019661,31.432852923329847-13.002649004200066,6.874397885980216-30.201900133809431,10.305915508420185-51.586390747769656,10.305915508420185-29.770119770710153,0-55.820868343630536-10.601344177900501-78.144670624610626-31.819182721869765-22.327589828049895-21.210263449880586-33.493278515589736-56.294311724210274-33.493278515589736-105.244569728900387,0-46.20428639732927,11.249014722509855-82.273096903260011,33.75083171462029-108.210219064829289,22.498029445049724-25.933334614541309,49.658529302039824-38.905683242361192,81.481499570929373-38.905683242361192,21.558717777979837,0,40.379039042710247,5.325291144740731,56.464751341210103,15.972085887170579ZM1689.820319246259714,163.345541393389794c-14.013924065109677-16.487192285209858-31.872208380499615-24.732682201369244-53.574852946179817-24.732682201369244-32.470640813549835,0-54.684604230239529,15.29032741913943-66.64567779716981,45.859619616268901-6.325203564510048,16.320540215270739-9.484017799710273,37.705030829210955-9.484017799710273,64.153471841820647,0,31.091973689270162,6.279752999949778,54.748992530010582,18.839258999940284,70.982419163239683,12.559505999949579,16.229639086210227,29.436815630790079,24.346352402810226,50.628141345429867,24.346352402810226,33.148611734540282,0,56.472326435319701-15.02898667305999,69.974931649399878-45.08696001915996,7.518280883579791-17.006086230339861,11.279315098880033-36.84525765006947,11.279315098880033-59.517514259179734,0-34.178824530659767-7.010749579580079-59.513726712149946-21.017098550590163-76.004706544430519Z"/>
    <path d="M1800.318216726049286,0h169.363953647308335c33.478128327396007,0,60.513639131900163,9.491592893829875,81.102744866470857,28.470991134429823,20.589105734550685,18.979398240599949,30.879871054805335,45.643729434729721,30.879871054805335,79.996781129460032,0,29.542866948040682-9.184801583211083,55.26409892806987-27.554404749625974,77.163695940060279-18.373390713473782,21.899597011999504-46.484564878634046,32.849395518000165-84.341097589633137,32.849395518000165h-118.179042886280513v159.997349805939848h-51.272024343044905V0ZM1999.18337430390784,52.044683940150207c-11.256589816619453-5.321503597690025-26.69084402345834-7.987936717099728-46.298975073463225-7.987936717099728h-101.294158161350424v131.140028872960102h101.294158161350424c22.850271320199681,0,41.394101650679659-4.893510781650548,55.635278538453349-14.684319891990526,14.237389340734808-9.790809110349983,21.357977784615287-27.054448539740406,21.357977784615287-51.787130741100555,0-27.827108136849347-10.230164567519751-46.719392795409476-30.69428124960541-56.680641522769292Z"/>
    <path d="M2257.360218159754368,205.545269124610058c10.646794742429847-1.371092030150066,17.778745827459716-5.829034901680643,21.384490613934759-13.373828614559898,2.056638045240106-4.139788919779676,3.086850841364139-10.082450232779593,3.086850841364139-17.846921674270561,0-15.858459475819473-5.616932267164884-27.368814944429687-16.843221707435077-34.527278858759018-11.226289440253822-7.154676367280445-27.296851550585416-10.733908324460572-48.207898783939527-10.733908324460572-24.168337691729903,0-41.314563162735794,6.563819028339822-51.427313771861009,19.680094443870075-5.654807737613737,7.25315259044055-9.340091012054472,18.043874120589862-11.055849823254903,32.364589496270128h-43.28408762591971c.859773179119657-34.103073589740234,11.881535078964589-57.832055824300369,33.06907324657459-71.1831591566106,21.187538167610001-13.347315785229512,45.761143393115162-20.020973677879738,73.724603223560734-20.020973677879738,32.425190249010484,0,58.76000485024997,6.181276776829691,79.004443803769391,18.547617877520679,20.073999336480483,12.37012864774988,30.107211457676385,31.607080087369468,30.107211457676385,57.718429412989281v158.974712103919956c0,4.810184746660525.98854977864903,8.673482732170669,2.965649335943453,11.589893956530432,1.969524463185735,2.912623677309966,6.13582621229034,4.370829289479843,12.495117700196715,4.370829289479843,2.060425592284446,0,4.378404383598536-.128776599510275,6.953936373934994-.386329798539919,2.579319537378979-.257553199040558,5.325291144739822-.640095450540684,8.245489916138467-1.155201848609977v34.262150565639786c-7.211489572953724,2.060425592269894-12.711007881734986,3.348191587459951-16.487192285234414,3.863297985510144-3.779971950545587.518893945130003-8.934823478255566.776447144149643-15.460767036140169.776447144149643-15.972085887180583,0-27.565767390764449-5.669957925809285-34.781044510764332-17.002298683299159-3.779971950525578-6.010837159810762-6.442617522890941-14.513880274980693-7.987936717105185-25.501554251441121-9.446142329285067,12.366341100690988-23.016923390159718,23.096461878090849-40.708555635590528,32.201724973370801-17.691632245439905,9.097688001200368-37.186136884109146,13.65031954882943-58.483513916000447,13.65031954882943-25.596242927555068,0-46.503502613868477-7.764471441480055-62.736929247119406-23.289626777390367-16.229639086199313-15.521367788849602-24.346352402830234-34.951484127748699-24.346352402830234-58.282773922639535,0-25.558367457109853,7.987936717125194-45.374813594549778,23.960022604291225-59.437975771239508,15.975873434208552-14.066949723730431,36.928583685044941-22.736644908860399,62.865705846628771-25.993935367230733l73.948068499181318-9.264340071149491ZM2159.709680255333296,330.829750266590054c9.790809110334521,7.711445782850205,21.384490613920207,11.563381127240064,34.78104451074978,11.563381127240064,16.316752668230038,0,32.11839893839533-3.772396856440537,47.404938810489512-11.3171905693398,25.766682544545802-12.517842982470029,38.648130043321544-33.008472493869704,38.648130043321544-61.479463628280428v-37.295975748400451c-5.658595284676267,3.61710742762989-12.942048251491542,6.631994875140663-21.854146447486528,9.044662342570518-8.915885743038416,2.416455014450548-17.65754432201993,4.136001372729879-26.228763283989792,5.162426621800478l-28.027848130193888,3.601957239439798c-16.797771142901183,2.230865209279727-29.429240536710495,5.74570886670972-37.898195728495921,10.544530972239954-14.343440657985411,8.052325016869872-21.513267213444124,20.907259686309771-21.513267213444124,38.557228914249208,0,13.362465973430517,4.897298328700344,23.903209398580657,14.688107439049418,31.618442728480659Z"/>
    <path d="M2567.069627762353775,110.958317764660023h51.272024343030353c-6.529731104945313,17.702994886560191-21.043611379911454,58.085821476319325-43.54164082497482,121.152267316319922-16.835646613350036,47.427664092740088-30.917746525235998,86.090944324239899-42.253874829786582,115.989840694479426-26.770382511398566,70.368836542031204-45.647516981794979,113.277957010541286-56.627615864148538,128.731148952590956-10.983886429390623,15.445616847979181-29.861020899791583,23.168425271949673-56.63140341117105,23.168425271949673-6.522156010834806,0-11.540655844959474-.257553199020549-15.059287049420163-.772659597099846-3.518631204444318-.515106398060198-7.855372570555119-1.458205612170786-12.998861457139355-2.833085189380654v-42.253874829779306c8.059900110944,2.230865209269723,13.888935012624643,3.609532333519383,17.487104705014644,4.124638731589584s6.775921662831024.77265959711076,9.521893270184592.77265959711076c8.571218961960767,0,14.869909697184994-1.416542594710336,18.899859752659722-4.245840237041193,4.02995005547109-2.829297642319943,7.419804660411501-6.298690735189666,10.165776267765068-10.41196682564987.852198085036434-1.374879577209867,3.939048926400574-8.400779344989132,9.252977430005558-21.081486850359397,5.313928503604984-12.692070146519654,9.173438942074426-22.119274740590299,4.041312696625027-28.285401329249908l-102.025154740984362-284.054665705480147h60.093221409953912l73.944280952155168,224.768191816030594,74.459387350230827-224.768191816030594Z"/>
  </g>
  <g>
    <path class="cls-1" d="M359.997675879550115,126.159402089060677h-126.159970403109583L3.859355294900524,356.137967573879905c-8.244393148181189,8.243962541620022-2.405368229699889,22.340298805000202,9.25373491873961,22.340298805000202h220.724615262800398l126.159970403109583-126.159539796560239h-126.159970403109583l126.159970403109583-126.159324493259192Z"/>
    <path class="cls-1" d="M706.866759709399958.000077595799667h-220.709974639859865l-126.159109189989977,126.159324493261011h126.159109189989977l-126.159109189989977,126.159324493259192h126.159109189989977L716.124800693710313,22.35114156471991C724.372638694339912,14.102872957530053,718.531030136519803.000077595799667,706.866759709399958.000077595799667Z"/>
    <path class="cls-1" d="M462.482036543140566,331.128769326080146c-13.074937509200026,0-23.67474852641044,10.599380410629237-23.67474852641044,23.674748526400435,0,13.075152812469241,10.599811017210413,23.674748526399526,23.67474852641044,23.674748526399526,13.074937509189112,0,23.674748526399526-10.599595713930285,23.674748526399526-23.674748526399526,0-13.075368115771198-10.599811017210413-23.674748526400435-23.674748526399526-23.674748526400435ZM462.482036543140566,373.405290526019598c-10.273411246690557,0-18.602203280121103-8.328361426849369-18.602203280121103-18.601772673539017,0-10.273411246690557,8.328792033430545-18.601987976840974,18.602203280121103-18.601987976840974,10.273411246679643,0,18.602203280109279,8.328576730150417,18.602203280109279,18.601987976840974,0,10.273411246689648-8.328792033429636,18.601772673539017-18.602203280109279,18.601772673539017Z"/>
    <path class="cls-1" d="M462.483758969359769,363.255032754750573c-2.358001508369853,0-4.501560951159263-.970156573830536-6.024185738159758-2.527229885430643-1.512290229629798-1.523270696839973-2.437233114939772-3.610420680610332-2.437233114939772-5.923423803729747,0-2.346805737879549.959391409909585-4.467543033140828,2.504407737889778-6.002224803740319,1.534681770610405-1.523055393559844,3.633458131429506-2.45940935265935,5.957011115209752-2.45940935265935,2.324414196900761,0,4.41199478722956.936353959099506,5.945815344720359,2.448213582159951l3.599870819950411-3.576618065850198c-2.448428885430985-2.43680250837042-5.82180065618013-3.937466360959661-9.545686164670769-3.937466360959661-3.72302429535921,0-7.096396066110174,1.500663852589241-9.543963738429738,3.937466360959661-2.459624655930384,2.448428885429166-3.983110656039571,5.844192197169832-3.983110656039571,9.590038640089915,0,3.712043828149945,1.489037475519581,7.074219828409696,3.903879049479656,9.511237640070249,2.45962465591947,2.4822315001893,5.866583738150439,4.016482664239447,9.623195344989654,4.016482664239447,3.75747281995973,0,7.165293115310305-1.534251164050147,9.624056558120174-4.016482664239447l-3.599009606829895-3.576618065841103c-1.534681770610405,1.556858008300878-3.666184229789906,2.516034114931244-6.025046951290278,2.516034114931244Z"/>
  </g>
</svg>