<?xml version="1.0" encoding="UTF-8"?>
<svg id="Camada_1" xmlns="http://www.w3.org/2000/svg" viewBox="0 0 2618.341652105385947 500">
  <defs>
    <style>
      .cls-1 {
        fill: #000310;
      }
    </style>
  </defs>
  <g>
    <path class="cls-1" d="M832.561532096489827,0h49.980470800823241v185.252713499489801L1071.896629846116411,0h71.671752725369515l-161.713108617141188,152.744197215510212,165.061300204572035,225.734016312379936h-67.088820801360271l-135.597971744497045-190.184099751580106-61.68777871574639,58.271411281530163v131.912688470049943h-49.980470800823241V0Z"/>
    <path class="cls-1" d="M1162.487180059366437,0h47.15117315849966v52.559790338220409h-47.15117315849966V0ZM1162.487180059366437,103.831814681269861h47.15117315849966v274.646398846620286h-47.15117315849966V103.831814681269861Z"/>
    <path class="cls-1" d="M1256.350170919195079,102.540261139050017h44.056747223021375v39.163236441369918c13.051887115769205-16.142525504170408,26.880221375678957-27.736207007739722,41.481215232719478-34.781044510739775,14.597206309950707-7.041049955970266,30.830632943219825-10.563468707469838,48.696492352690257-10.563468707469838,39.159448894350135,0,65.607889906919809,13.654107095870131,79.352898131850452,40.966108834649276,7.556156354039558,14.941873091031084,11.336128304559679,36.326363704940377,11.336128304559679,64.153471841789724v176.999648489240826h-47.147385611449863v-173.909010100839623c0-16.831859066291145-2.492205955350073-30.402640127160339-7.472830319051354-40.708555635590528-8.245489916129372-17.172738300299898-23.187363007149543-25.762894997520561-44.829406820119402-25.762894997520561-10.995249070540012,0-20.01339858378924,1.117326378180223-27.054448539740406,3.348191587450856-12.711007881758633,3.77997195054013-23.876696569299384,11.336128304559679-33.493278515588827,22.672256609110264-7.730383518070084,9.105263095259943-12.752670899229997,18.509742407070007-15.070649690551363,28.21343793539927-2.317978791299538,9.703695528320168-3.480755733999104,23.573692805700375-3.480755733999104,41.609991832210653v144.53658276977967h-46.374726014340922V102.540261139050017Z"/>
    <path class="cls-1" d="M1684.146573773396085,113.618836244560043c8.722720843768911,6.014624706859649,17.619668851590177,14.775221021070138,26.690844023460158,26.281788942630556v-34.781044510760694h42.768981227860422v250.943929441400542c0,35.038597709799433-5.135913792510109,62.691478682580055-15.40774137751032,82.96243046537893-19.172563139880367,37.439902536100817-55.381512886469864,56.165535124689995-108.615486598630014,56.165535124689995-29.618617888931112,0-54.525527254359986-6.658507704429212-74.724515643340055-19.967948019218966-20.202775935989848-13.313227861850464-31.501028770100675-34.137161513180217-33.906121143430937-62.479376048080667h47.15117315848147c2.215715021109645,12.366341100680074,6.658507704449221,21.899597011990409,13.32459050298894,28.599767733920089,10.41575437271058,10.305915508420185,26.819620622960429,15.456979489090372,49.196448562590376,15.456979489090372,35.360539208590126,0,58.506239198259209-12.540568264730609,69.440887516089788-37.614129700110425,6.491855634469175-14.775221021069228,9.484017799719368-41.136548451630006,8.96891140166008-79.099132479899708-9.241614788890729,14.085887458970319-20.358065364849608,24.566030131420121-33.36071436902057,31.432852923329847-13.002649004189152,6.874397885980216-30.201900133810341,10.305915508420185-51.586390747759651,10.305915508420185-29.770119770719248,0-55.820868343640541-10.601344177900501-78.14467062462063-31.819182721869765-22.327589828038981-21.210263449880586-33.493278515588827-56.294311724210274-33.493278515588827-105.244569728900387,0-46.20428639732927,11.24901472251986-82.273096903260011,33.750831714629385-108.210219064829289,22.49802944503972-25.933334614541309,49.658529302030729-38.905683242361192,81.481499570920278-38.905683242361192,21.558717777988932,0,40.379039042720251,5.325291144740731,56.464751341220108,15.972085887170579ZM1689.820319246255167,163.345541393389794c-14.013924065098763-16.487192285209858-31.87220838048961-24.732682201369244-53.574852946168903-24.732682201369244-32.470640813549835,0-54.684604230240438,15.29032741913943-66.64567779717072,45.859619616268901-6.325203564509138,16.320540215270739-9.484017799719368,37.705030829210955-9.484017799719368,64.153471841820647,0,31.091973689270162,6.279752999958873,54.748992530010582,18.839258999949379,70.982419163239683,12.559505999950488,16.229639086210227,29.436815630790079,24.346352402810226,50.628141345430777,24.346352402810226,33.148611734539372,0,56.472326435319701-15.02898667305999,69.974931649399878-45.08696001915996,7.518280883568877-17.006086230339861,11.279315098880033-36.84525765006947,11.279315098880033-59.517514259179734,0-34.178824530659767-7.010749579590993-59.513726712149946-21.017098550601077-76.004706544430519Z"/>
    <path class="cls-1" d="M1800.318216726045648,0h169.363953647309245c33.478128327400555,0,60.513639131901073,9.491592893829875,81.102744866471767,28.470991134429823,20.589105734548866,18.979398240599949,30.879871054808973,45.643729434729721,30.879871054808973,79.996781129460032,0,29.542866948040682-9.184801583209264,55.26409892806987-27.554404749629612,77.163695940060279-18.373390713470144,21.899597011999504-46.484564878630408,32.849395518000165-84.341097589629499,32.849395518000165h-118.179042886280513v159.997349805939848h-51.272024343050361V0ZM1999.183374303906021,52.044683940150207c-11.256589816619453-5.321503597690025-26.690844023460158-7.987936717099728-46.298975073459587-7.987936717099728h-101.294158161350424v131.140028872960102h101.294158161350424c22.850271320199681,0,41.394101650679659-4.893510781650548,55.635278538449711-14.684319891990526,14.237389340740265-9.790809110349983,21.357977784618924-27.054448539740406,21.357977784618924-51.787130741100555,0-27.827108136849347-10.230164567519751-46.719392795409476-30.694281249609048-56.680641522769292Z"/>
    <path class="cls-1" d="M2257.360218159756187,205.545269124610058c10.646794742429847-1.371092030150066,17.778745827459716-5.829034901680643,21.384490613929302-13.373828614559898,2.056638045240106-4.139788919779676,3.086850841371415-10.082450232779593,3.086850841371415-17.846921674270561,0-15.858459475819473-5.616932267170341-27.368814944429687-16.843221707440534-34.527278858759018-11.226289440250184-7.154676367280445-27.296851550579959-10.733908324460572-48.207898783941346-10.733908324460572-24.168337691728084,0-41.314563162728518,6.563819028339822-51.42731377185919,19.680094443870075-5.654807737610099,7.25315259044055-9.340091012050834,18.043874120589862-11.055849823249446,32.364589496270128h-43.284087625921529c.859773179121476-34.103073589740234,11.881535078960951-57.832055824300369,33.069073246570042-71.1831591566106,21.18753816761091-13.347315785229512,45.761143393121529-20.020973677879738,73.724603223561644-20.020973677879738,32.425190249008665,0,58.76000485024997,6.181276776829691,79.004443803769391,18.547617877520679,20.073999336480483,12.37012864774988,30.107211457680023,31.607080087369468,30.107211457680023,57.718429412989281v158.974712103919956c0,4.810184746660525.98854977864903,8.673482732170669,2.965649335939816,11.589893956530432,1.969524463191192,2.912623677309966,6.13582621229034,4.370829289479843,12.495117700200353,4.370829289479843,2.060425592280808,0,4.378404383600355-.128776599510275,6.953936373929537-.386329798539919,2.579319537380798-.257553199040558,5.325291144739822-.640095450540684,8.245489916140286-1.155201848609977v34.262150565639786c-7.211489572950086,2.060425592269894-12.711007881729529,3.348191587459951-16.487192285228957,3.863297985510144-3.779971950551044.518893945130003-8.934823478261023.776447144149643-15.460767036140169.776447144149643-15.972085887180583,0-27.565767390769906-5.669957925809285-34.781044510771608-17.002298683299159-3.779971950520121-6.010837159810762-6.442617522889122-14.513880274980693-7.987936717099728-25.501554251441121-9.446142329290524,12.366341100690988-23.016923390159718,23.096461878090849-40.708555635590528,32.201724973370801-17.691632245438086,9.097688001200368-37.186136884109146,13.65031954882943-58.483513915998628,13.65031954882943-25.596242927560525,0-46.503502613870296-7.764471441480055-62.736929247119406-23.289626777390367-16.229639086201132-15.521367788849602-24.346352402830234-34.951484127748699-24.346352402830234-58.282773922639535,0-25.558367457109853,7.987936717119737-45.374813594549778,23.960022604289406-59.437975771239508,15.975873434210371-14.066949723730431,36.928583685039484-22.736644908860399,62.86570584663059-25.993935367230733l73.948068499179499-9.264340071149491ZM2159.709680255335115,330.829750266590054c9.790809110330883,7.711445782850205,21.384490613920207,11.563381127240064,34.78104451074978,11.563381127240064,16.316752668230038,0,32.118398938389873-3.772396856440537,47.404938810490421-11.3171905693398,25.766682544541254-12.517842982470029,38.648130043320634-33.008472493869704,38.648130043320634-61.479463628280428v-37.295975748400451c-5.658595284679905,3.61710742762989-12.942048251490633,6.631994875140663-21.854146447489256,9.044662342570518-8.915885743041144,2.416455014450548-17.65754432202084,4.136001372729879-26.228763283990702,5.162426621800478l-28.02784813019025,3.601957239439798c-16.797771142899364,2.230865209279727-29.429240536710495,5.74570886670972-37.898195728499559,10.544530972239954-14.343440657979954,8.052325016869872-21.513267213440486,20.907259686309771-21.513267213440486,38.557228914249208,0,13.362465973430517,4.897298328700344,23.903209398580657,14.688107439049418,31.618442728480659Z"/>
    <path class="cls-1" d="M2567.069627762355594,110.958317764660023h51.272024343030353c-6.529731104948951,17.702994886560191-21.043611379909635,58.085821476319325-43.541640824980277,121.152267316319922-16.835646613350036,47.427664092740088-30.917746525230541,86.090944324239899-42.253874829779306,115.989840694479426-26.770382511400385,70.368836542031204-45.647516981800436,113.277957010541286-56.627615864150357,128.731148952590956-10.983886429390623,15.445616847979181-29.861020899790674,23.168425271949673-56.631403411169231,23.168425271949673-6.522156010840263,0-11.540655844961293-.257553199020549-15.059287049421982-.772659597099846-3.518631204449775-.515106398060198-7.855372570558757-1.458205612170786-12.998861457139355-2.833085189380654v-42.253874829779306c8.059900110940362,2.230865209269723,13.888935012621005,3.609532333519383,17.487104705011006,4.124638731589584s6.775921662829205.77265959711076,9.521893270190048.77265959711076c8.571218961958948,0,14.869909697179537-1.416542594710336,18.899859752658813-4.245840237041193,4.029950055470181-2.829297642319943,7.419804660410591-6.298690735189666,10.165776267760521-10.41196682564987.852198085040072-1.374879577209867,3.939048926400574-8.400779344989132,9.252977430011015-21.081486850359397,5.313928503599527-12.692070146519654,9.173438942068969-22.119274740590299,4.04131269661957-28.285401329249908l-102.025154740980724-284.054665705480147h60.093221409950274l73.944280952160625,224.768191816030594,74.459387350229008-224.768191816030594Z"/>
  </g>
  <g>
    <path class="cls-1" d="M359.997675879549206,126.159402089060677h-126.159970403105035L3.859355294898705,356.137967573879905c-8.244393148175732,8.243962541620022-2.405368229694432,22.340298805000202,9.25373491874052,22.340298805000202h220.724615262804946l126.159970403105035-126.159539796560239h-126.159970403105035l126.159970403105035-126.159324493259192Z"/>
    <path class="cls-1" d="M706.86675970939541.000077595799667h-220.709974639856227l-126.159109189989977,126.159324493261011h126.159109189989977l-126.159109189989977,126.159324493259192h126.159109189989977L716.124800693709403,22.35114156471991C724.372638694338093,14.102872957530053,718.531030136518893.000077595799667,706.86675970939541.000077595799667Z"/>
    <path class="cls-1" d="M462.482036543138747,331.128769326080146c-13.074937509200026,0-23.674748526404073,10.599380410629237-23.674748526404073,23.674748526400435,0,13.075152812469241,10.599811017204047,23.674748526399526,23.674748526404073,23.674748526399526,13.074937509196388,0,23.674748526400435-10.599595713930285,23.674748526400435-23.674748526399526,0-13.075368115771198-10.599811017204047-23.674748526400435-23.674748526400435-23.674748526400435ZM462.482036543138747,373.405290526019598c-10.273411246689648,0-18.602203280113827-8.328361426849369-18.602203280113827-18.601772673539017,0-10.273411246690557,8.328792033424179-18.601987976840974,18.602203280113827-18.601987976840974,10.273411246684191,0,18.602203280110189,8.328576730150417,18.602203280110189,18.601987976840974,0,10.273411246689648-8.328792033425998,18.601772673539017-18.602203280110189,18.601772673539017Z"/>
    <path class="cls-1" d="M462.483758969363407,363.255032754750573c-2.35800150837531,0-4.501560951159263-.970156573830536-6.024185738164306-2.527229885430643-1.51229022962616-1.523270696839973-2.437233114940682-3.610420680610332-2.437233114940682-5.923423803729747,0-2.346805737879549.959391409909585-4.467543033140828,2.504407737895235-6.002224803740319,1.534681770610405-1.523055393559844,3.633458131429506-2.45940935265935,5.957011115209752-2.45940935265935,2.324414196900761,0,4.411994787225922.936353959099506,5.945815344719449,2.448213582159951l3.59987081995132-3.576618065850198c-2.448428885436442-2.43680250837042-5.821800656183768-3.937466360959661-9.545686164670769-3.937466360959661-3.723024295364667,0-7.096396066113812,1.500663852589241-9.543963738433376,3.937466360959661-2.459624655926746,2.448428885429166-3.98311065604139,5.844192197169832-3.98311065604139,9.590038640089915,0,3.712043828149945,1.489037475525038,7.074219828409696,3.903879049481475,9.511237640070249,2.459624655923108,2.4822315001893,5.866583738154077,4.016482664239447,9.623195344993292,4.016482664239447,3.757472819961549,0,7.165293115305758-1.534251164050147,9.624056558115626-4.016482664239447l-3.599009606828986-3.576618065841103c-1.534681770612224,1.556858008300878-3.666184229790815,2.516034114931244-6.02504695128664,2.516034114931244Z"/>
  </g>
</svg>