<?xml version="1.0" encoding="UTF-8"?>
<svg id="Camada_1" xmlns="http://www.w3.org/2000/svg" viewBox="0 0 2618.341652105378671 500">
  <defs>
    <style>
      .cls-1 {
        fill: #f6f6f6;
      }
    </style>
  </defs>
  <g>
    <path class="cls-1" d="M832.561532096489827,0h49.980470800819603v185.252713499489801L1071.896629846110955,0h71.67175272537861l-161.713108617150283,152.744197215510212,165.06130020458113,225.734016312379936h-67.088820801369366l-135.597971744491588-190.184099751580106-61.687778715750028,58.271411281530163v131.912688470049943h-49.980470800819603V0Z"/>
    <path class="cls-1" d="M1162.487180059359162,0h47.151173158501479v52.559790338220409h-47.151173158501479V0ZM1162.487180059359162,103.831814681269861h47.151173158501479v274.646398846620286h-47.151173158501479V103.831814681269861Z"/>
    <path class="cls-1" d="M1256.350170919189623,102.540261139050017h44.05674722303047v39.163236441369918c13.05188711576011-16.142525504170408,26.880221375680776-27.736207007739722,41.481215232710383-34.781044510739775,14.597206309959802-7.041049955970266,30.830632943219825-10.563468707469838,48.696492352688438-10.563468707469838,39.159448894351954,0,65.607889906930723,13.654107095870131,79.352898131850452,40.966108834649276,7.556156354041377,14.941873091031084,11.336128304570593,36.326363704940377,11.336128304570593,64.153471841789724v176.999648489240826h-47.147385611458958v-173.909010100839623c0-16.831859066291145-2.492205955350073-30.402640127160339-7.472830319051354-40.708555635590528-8.245489916120277-17.172738300299898-23.187363007149543-25.762894997520561-44.829406820119402-25.762894997520561-10.995249070540012,0-20.013398583780145,1.117326378180223-27.054448539740406,3.348191587450856-12.711007881749538,3.77997195054013-23.876696569299384,11.336128304559679-33.493278515590646,22.672256609110264-7.730383518068265,9.105263095259943-12.752670899229997,18.509742407070007-15.070649690549544,28.21343793539927-2.317978791299538,9.703695528320168-3.480755733990009,23.573692805700375-3.480755733990009,41.609991832210653v144.53658276977967h-46.374726014350017V102.540261139050017Z"/>
    <path class="cls-1" d="M1684.146573773390628,113.618836244560043c8.722720843779825,6.014624706859649,17.619668851588358,14.775221021070138,26.69084402345834,26.281788942630556v-34.781044510760694h42.768981227871336v250.943929441400542c0,35.038597709799433-5.135913792519204,62.691478682580055-15.407741377521234,82.96243046537893-19.172563139880367,37.439902536100817-55.38151288645895,56.165535124689995-108.615486598628195,56.165535124689995-29.618617888931112,0-54.525527254350891-6.658507704429212-74.72451564333096-19.967948019218966-20.202775935989848-13.313227861850464-31.501028770100675-34.137161513180217-33.906121143440032-62.479376048080667h47.151173158479651c2.215715021120559,12.366341100680074,6.658507704449221,21.899597011990409,13.324590502990759,28.599767733920089,10.415754372719675,10.305915508420185,26.819620622960429,15.456979489090372,49.196448562588557,15.456979489090372,35.360539208591945,0,58.506239198261028-12.540568264730609,69.440887516091607-37.614129700110425,6.49185563447827-14.775221021069228,9.484017799719368-41.136548451630006,8.968911401669175-79.099132479899708-9.241614788899824,14.085887458970319-20.358065364860522,24.566030131420121-33.36071436902057,31.432852923329847-13.002649004200066,6.874397885980216-30.201900133819436,10.305915508420185-51.586390747768746,10.305915508420185-29.770119770710153,0-55.820868343631446-10.601344177900501-78.14467062462063-31.819182721869765-22.3275898280408-21.210263449880586-33.493278515579732-56.294311724210274-33.493278515579732-105.244569728900387,0-46.20428639732927,11.249014722510765-82.273096903260011,33.75083171462029-108.210219064829289,22.498029445050634-25.933334614541309,49.658529302039824-38.905683242361192,81.481499570929373-38.905683242361192,21.558717777979837,0,40.379039042711156,5.325291144740731,56.464751341211013,15.972085887170579ZM1689.820319246258805,163.345541393389794c-14.013924065107858-16.487192285209858-31.872208380498705-24.732682201369244-53.574852946177998-24.732682201369244-32.470640813549835,0-54.684604230240438,15.29032741913943-66.64567779717072,45.859619616268901-6.325203564510957,16.320540215270739-9.484017799710273,37.705030829210955-9.484017799710273,64.153471841820647,0,31.091973689270162,6.279752999949778,54.748992530010582,18.839258999940284,70.982419163239683,12.559505999950488,16.229639086210227,29.436815630790079,24.346352402810226,50.628141345430777,24.346352402810226,33.148611734539372,0,56.472326435319701-15.02898667305999,69.974931649398059-45.08696001915996,7.518280883570696-17.006086230339861,11.279315098880033-36.84525765006947,11.279315098880033-59.517514259179734,0-34.178824530659767-7.010749579589174-59.513726712149946-21.017098550590163-76.004706544430519Z"/>
    <path class="cls-1" d="M1800.318216726051105,0h169.363953647309245c33.478128327389641,0,60.513639131899254,9.491592893829875,81.102744866469948,28.470991134429823,20.589105734548866,18.979398240599949,30.879871054799878,45.643729434729721,30.879871054799878,79.996781129460032,0,29.542866948040682-9.184801583209264,55.26409892806987-27.554404749620517,77.163695940060279-18.373390713481058,21.899597011999504-46.484564878639503,32.849395518000165-84.341097589640412,32.849395518000165h-118.179042886280513v159.997349805939848h-51.272024343037629V0ZM1999.183374303909659,52.044683940150207c-11.256589816619453-5.321503597690025-26.690844023460158-7.987936717099728-46.298975073468682-7.987936717099728h-101.294158161352243v131.140028872960102h101.294158161352243c22.850271320199681,0,41.394101650679659-4.893510781650548,55.635278538458806-14.684319891990526,14.23738934073117-9.790809110349983,21.35797778460983-27.054448539740406,21.35797778460983-51.787130741100555,0-27.827108136849347-10.230164567519751-46.719392795409476-30.694281249599953-56.680641522769292Z"/>
    <path class="cls-1" d="M2257.36021815975073,205.545269124610058c10.646794742428028-1.371092030150066,17.778745827457897-5.829034901680643,21.384490613938397-13.373828614559898,2.056638045240106-4.139788919779676,3.086850841360501-10.082450232779593,3.086850841360501-17.846921674270561,0-15.858459475819473-5.616932267159427-27.368814944429687-16.84322170742962-34.527278858759018-11.226289440261098-7.154676367280445-27.296851550590873-10.733908324460572-48.207898783939527-10.733908324460572-24.168337691731722,0-41.314563162741251,6.563819028339822-51.427313771861009,19.680094443870075-5.654807737619194,7.25315259044055-9.340091012059929,18.043874120589862-11.055849823258541,32.364589496270128h-43.284087625921529c.859773179119657-34.103073589740234,11.881535078970046-57.832055824300369,33.069073246580956-71.1831591566106,21.18753816761091-13.347315785229512,45.761143393108796-20.020973677879738,73.724603223559825-20.020973677879738,32.425190249010484,0,58.76000485024997,6.181276776829691,79.004443803769391,18.547617877520679,20.073999336480483,12.37012864774988,30.107211457670928,31.607080087369468,30.107211457670928,57.718429412989281v158.974712103919956c0,4.810184746660525.98854977864903,8.673482732170669,2.965649335950729,11.589893956530432,1.969524463178459,2.912623677309966,6.135826212288521,4.370829289479843,12.495117700189439,4.370829289479843,2.060425592288084,0,4.378404383598536-.128776599510275,6.953936373938632-.386329798539919,2.579319537380798-.257553199040558,5.325291144741641-.640095450540684,8.245489916140286-1.155201848609977v34.262150565639786c-7.211489572959181,2.060425592269894-12.711007881740443,3.348191587459951-16.487192285239871,3.863297985510144-3.77997195054013.518893945130003-8.934823478250109.776447144149643-15.460767036140169.776447144149643-15.972085887178764,0-27.565767390760811-5.669957925809285-34.781044510758875-17.002298683299159-3.779971950531035-6.010837159810762-6.442617522890941-14.513880274980693-7.987936717110642-25.501554251441121-9.44614232927961,12.366341100690988-23.016923390159718,23.096461878090849-40.708555635590528,32.201724973370801-17.691632245439905,9.097688001200368-37.186136884109146,13.65031954882943-58.483513915998628,13.65031954882943-25.596242927549611,0-46.503502613872115-7.764471441480055-62.736929247121225-23.289626777390367-16.229639086199313-15.521367788849602-24.346352402828416-34.951484127748699-24.346352402828416-58.282773922639535,0-25.558367457109853,7.987936717128832-45.374813594549778,23.960022604289406-59.437975771239508,15.975873434210371-14.066949723730431,36.928583685050398-22.736644908860399,62.86570584663059-25.993935367230733l73.948068499179499-9.264340071149491ZM2159.709680255329658,330.829750266590054c9.790809110339978,7.711445782850205,21.384490613920207,11.563381127240064,34.78104451074978,11.563381127240064,16.316752668230038,0,32.118398938400787-3.772396856440537,47.404938810490421-11.3171905693398,25.766682544550349-12.517842982470029,38.648130043318815-33.008472493869704,38.648130043318815-61.479463628280428v-37.295975748400451c-5.658595284668991,3.61710742762989-12.942048251488814,6.631994875140663-21.854146447478342,9.044662342570518-8.915885743039325,2.416455014450548-17.65754432202084,4.136001372729879-26.228763283990702,5.162426621800478l-28.027848130199345,3.601957239439798c-16.797771142901183,2.230865209279727-29.429240536710495,5.74570886670972-37.898195728490464,10.544530972239954-14.343440657989049,8.052325016869872-21.513267213449581,20.907259686309771-21.513267213449581,38.557228914249208,0,13.362465973430517,4.897298328700344,23.903209398580657,14.688107439049418,31.618442728480659Z"/>
    <path class="cls-1" d="M2567.069627762350137,110.958317764660023h51.272024343028534c-6.529731104939856,17.702994886560191-21.043611379907816,58.085821476319325-43.541640824969363,121.152267316319922-16.835646613348217,47.427664092740088-30.917746525239636,86.090944324239899-42.253874829788401,115.989840694479426-26.770382511400385,70.368836542031204-45.647516981791341,113.277957010541286-56.627615864152176,128.731148952590956-10.983886429388804,15.445616847979181-29.861020899788855,23.168425271949673-56.631403411169231,23.168425271949673-6.522156010829349,0-11.540655844959474-.257553199020549-15.059287049420163-.772659597099846-3.518631204438861-.515106398060198-7.855372570549662-1.458205612170786-12.998861457139355-2.833085189380654v-42.253874829779306c8.059900110949457,2.230865209269723,13.8889350126301,3.609532333519383,17.487104705020101,4.124638731589584s6.775921662829205.77265959711076,9.521893270179135.77265959711076c8.571218961960767,0,14.869909697190451-1.416542594710336,18.899859752660632-4.245840237041193,4.029950055470181-2.829297642319943,7.419804660408772-6.298690735189666,10.165776267769616-10.41196682564987.852198085030977-1.374879577209867,3.939048926400574-8.400779344989132,9.252977430000101-21.081486850359397,5.313928503610441-12.692070146519654,9.173438942079883-22.119274740590299,4.041312696630484-28.285401329249908l-102.025154740989819-284.054665705480147h60.093221409959369l73.94428095215153,224.768191816030594,74.459387350229008-224.768191816030594Z"/>
  </g>
  <g>
    <path class="cls-1" d="M359.997675879551025,126.159402089060677h-126.159970403110492L3.859355294900524,356.137967573879905c-8.244393148181189,8.243962541620022-2.405368229701708,22.340298805000202,9.25373491874052,22.340298805000202h220.724615262799489l126.159970403110492-126.159539796560239h-126.159970403110492l126.159970403110492-126.159324493259192Z"/>
    <path class="cls-1" d="M706.866759709389953.000077595799667h-220.709974639848951l-126.159109189989977,126.159324493261011h126.159109189989977l-126.159109189989977,126.159324493259192h126.159109189989977L716.124800693709403,22.35114156471991C724.372638694339912,14.102872957530053,718.531030136518893.000077595799667,706.866759709389953.000077595799667Z"/>
    <path class="cls-1" d="M462.482036543140566,331.128769326080146c-13.074937509200026,0-23.674748526411349,10.599380410629237-23.674748526411349,23.674748526400435,0,13.075152812469241,10.599811017211323,23.674748526399526,23.674748526411349,23.674748526399526,13.074937509189112,0,23.674748526400435-10.599595713930285,23.674748526400435-23.674748526399526,0-13.075368115771198-10.599811017211323-23.674748526400435-23.674748526400435-23.674748526400435ZM462.482036543140566,373.405290526019598c-10.273411246691467,0-18.602203280121103-8.328361426849369-18.602203280121103-18.601772673539017,0-10.273411246690557,8.328792033429636-18.601987976840974,18.602203280121103-18.601987976840974,10.273411246678734,0,18.602203280110189,8.328576730150417,18.602203280110189,18.601987976840974,0,10.273411246689648-8.328792033431455,18.601772673539017-18.602203280110189,18.601772673539017Z"/>
    <path class="cls-1" d="M462.483758969359769,363.255032754750573c-2.358001508369853,0-4.501560951159263-.970156573830536-6.024185738160668-2.527229885430643-1.512290229629798-1.523270696839973-2.437233114938863-3.610420680610332-2.437233114938863-5.923423803729747,0-2.346805737879549.959391409909585-4.467543033140828,2.504407737889778-6.002224803740319,1.534681770610405-1.523055393559844,3.633458131429506-2.45940935265935,5.957011115209752-2.45940935265935,2.324414196900761,0,4.41199478722956.936353959099506,5.945815344721268,2.448213582159951l3.599870819949501-3.576618065850198c-2.448428885430985-2.43680250837042-5.82180065618013-3.937466360959661-9.545686164670769-3.937466360959661-3.72302429535921,0-7.096396066110174,1.500663852589241-9.543963738429738,3.937466360959661-2.459624655930384,2.448428885429166-3.983110656039571,5.844192197169832-3.983110656039571,9.590038640089915,0,3.712043828149945,1.489037475519581,7.074219828409696,3.903879049479656,9.511237640070249,2.45962465591947,2.4822315001893,5.866583738150439,4.016482664239447,9.623195344989654,4.016482664239447,3.75747281995973,0,7.165293115309396-1.534251164050147,9.624056558119264-4.016482664239447l-3.599009606828986-3.576618065841103c-1.534681770610405,1.556858008300878-3.666184229788996,2.516034114931244-6.025046951290278,2.516034114931244Z"/>
  </g>
</svg>